<svg width="40" height="40" viewBox="0 0 40 40" fill="none" xmlns="http://www.w3.org/2000/svg">
<path d="M15.9947 24.9842C13.7456 21.1554 13.7403 17.175 13.9689 15.3229C8.6998 17.8303 5.54683 23.2134 7.66831 28.0386C10.1673 28.2877 13.6712 27.5296 15.9947 24.9842Z" fill="#415167"/>
<path d="M16.5742 25.9103C14.5219 28.0873 10.9967 29.3167 8.30634 29.1542C10.7628 32.7014 17.2973 34.2611 23.1832 30.8384C20.663 30.2265 18.2863 28.4393 16.5742 25.9103Z" fill="#415167"/>
<path d="M22.7313 17.9603C19.2114 14.0611 18.919 10.3406 19.4029 7.89819C15.766 9.98319 13.9902 15.3284 15.4151 20.7764C17.0049 27.0043 22.6568 31.7159 27.9579 29.3438C28.1227 27.5946 27.9047 23.6683 22.7313 17.9603Z" fill="#415167"/>
<path d="M32.5252 16.1894C30.9088 9.98314 25.5121 5.69401 20.5992 7.35117C19.8814 9.68528 19.9824 13.4383 23.5342 17.2617C25.1452 19.1571 29.1276 23.6466 29.0532 28.7318C32.3178 26.4356 33.8438 21.3667 32.5252 16.1894Z" fill="#415167"/>
</svg>
